HIERARCHY
ROOT Hips
{
	OFFSET 0.000000 100.481300 0.000000
	CHANNELS 6 Xposition Yposition Zposition Xrotation Yrotation Zrotation
	JOINT Spine
	{
		OFFSET -0.279200 12.230698 -2.892100
		CHANNELS 3 Xrotation Yrotation Zrotation
		JOINT Spine1
		{
			OFFSET -0.325700 14.269203 -3.374200
			CHANNELS 3 Xrotation Yrotation Zrotation
			JOINT Spine2
			{
				OFFSET -0.372300 16.307602 -0.352600
				CHANNELS 3 Xrotation Yrotation Zrotation
				JOINT Neck
				{
					OFFSET -0.418800 17.814194 8.416900
					CHANNELS 3 Xrotation Yrotation Zrotation
					JOINT Head
					{
						OFFSET 0.000000 7.031097 3.806800
						CHANNELS 3 Xrotation Yrotation Zrotation
						JOINT HeadTop_End
						{
							OFFSET 0.000000 24.646606 12.978600
							CHANNELS 3 Xrotation Yrotation Zrotation
							End Site
							{
								OFFSET 0.000000 27.854965 0.000000
							}
						}
					}
				}
				JOINT LeftShoulder
				{
					OFFSET 16.952999 14.495407 -7.737500
					CHANNELS 3 Xrotation Yrotation Zrotation
					JOINT LeftArm
					{
						OFFSET 9.308998 -2.777710 0.208600
						CHANNELS 3 Xrotation Yrotation Zrotation
						JOINT LeftForeArm
						{
							OFFSET 29.972298 0.000000 0.000000
							CHANNELS 3 Xrotation Yrotation Zrotation
							JOINT LeftHand
							{
								OFFSET 26.026505 0.000000 0.000000
								CHANNELS 3 Xrotation Yrotation Zrotation
								JOINT LeftHandThumb1
								{
									OFFSET 12.240501 -7.147949 9.207150
									CHANNELS 3 Xrotation Yrotation Zrotation
									JOINT LeftHandThumb2
									{
										OFFSET 4.138618 -2.389435 2.389433
										CHANNELS 3 Xrotation Yrotation Zrotation
										JOINT LeftHandThumb3
										{
											OFFSET 2.726913 -1.574387 1.574386
											CHANNELS 3 Xrotation Yrotation Zrotation
											JOINT LeftHandThumb4
											{
												OFFSET 3.941010 -2.275345 2.275342
												CHANNELS 3 Xrotation Yrotation Zrotation
												End Site
												{
													OFFSET -0.005798 5.087799 0.009903
												}
											}
										}
									}
								}
								JOINT LeftHandIndex1
								{
									OFFSET 24.424698 -1.985611 5.953459
									CHANNELS 3 Xrotation Yrotation Zrotation
									JOINT LeftHandIndex2
									{
										OFFSET 6.426697 0.000000 0.000000
										CHANNELS 3 Xrotation Yrotation Zrotation
										JOINT LeftHandIndex3
										{
											OFFSET 5.337898 0.000000 0.000000
											CHANNELS 3 Xrotation Yrotation Zrotation
											JOINT LeftHandIndex4
											{
												OFFSET 4.409401 0.000000 0.000000
												CHANNELS 3 Xrotation Yrotation Zrotation
												End Site
												{
													OFFSET 0.000000 4.409363 0.014373
												}
											}
										}
									}
								}
								JOINT LeftHandMiddle1
								{
									OFFSET 23.810104 0.000000 0.000000
									CHANNELS 3 Xrotation Yrotation Zrotation
									JOINT LeftHandMiddle2
									{
										OFFSET 7.176498 0.000000 0.000000
										CHANNELS 3 Xrotation Yrotation Zrotation
										JOINT LeftHandMiddle3
										{
											OFFSET 6.774902 0.000000 0.000000
											CHANNELS 3 Xrotation Yrotation Zrotation
											JOINT LeftHandMiddle4
											{
												OFFSET 5.403328 0.000000 0.000000
												CHANNELS 3 Xrotation Yrotation Zrotation
												End Site
												{
													OFFSET -0.027702 5.403244 0.017414
												}
											}
										}
									}
								}
								JOINT LeftHandRing1
								{
									OFFSET 22.908401 -0.839279 -6.020567
									CHANNELS 3 Xrotation Yrotation Zrotation
									JOINT LeftHandRing2
									{
										OFFSET 6.337502 0.000000 0.000000
										CHANNELS 3 Xrotation Yrotation Zrotation
										JOINT LeftHandRing3
										{
											OFFSET 5.779297 0.000000 0.000000
											CHANNELS 3 Xrotation Yrotation Zrotation
											JOINT LeftHandRing4
											{
												OFFSET 4.965698 0.000000 0.000000
												CHANNELS 3 Xrotation Yrotation Zrotation
												End Site
												{
													OFFSET 0.000000 4.965668 0.016186
												}
											}
										}
									}
								}
								JOINT LeftHandPinky1
								{
									OFFSET 20.037003 -1.530319 -10.950146
									CHANNELS 3 Xrotation Yrotation Zrotation
									JOINT LeftHandPinky2
									{
										OFFSET 5.254700 0.000000 0.000000
										CHANNELS 3 Xrotation Yrotation Zrotation
										JOINT LeftHandPinky3
										{
											OFFSET 4.810204 0.000000 0.000000
											CHANNELS 3 Xrotation Yrotation Zrotation
											JOINT LeftHandPinky4
											{
												OFFSET 3.647202 0.000000 0.000000
												CHANNELS 3 Xrotation Yrotation Zrotation
												End Site
												{
													OFFSET 0.000000 3.647186 0.011889
												}
											}
										}
									}
								}
							}
						}
					}
				}
				JOINT RightShoulder
				{
					OFFSET -15.141001 14.495407 -7.737500
					CHANNELS 3 Xrotation Yrotation Zrotation
					JOINT RightArm
					{
						OFFSET -9.308998 -2.777710 0.208500
						CHANNELS 3 Xrotation Yrotation Zrotation
						JOINT RightForeArm
						{
							OFFSET -29.972300 0.000000 0.000000
							CHANNELS 3 Xrotation Yrotation Zrotation
							JOINT RightHand
							{
								OFFSET -26.026505 0.000000 0.000000
								CHANNELS 3 Xrotation Yrotation Zrotation
								JOINT RightHandThumb1
								{
									OFFSET -12.240601 -7.148026 9.207092
									CHANNELS 3 Xrotation Yrotation Zrotation
									JOINT RightHandThumb2
									{
										OFFSET -4.138618 -2.389435 2.389433
										CHANNELS 3 Xrotation Yrotation Zrotation
										JOINT RightHandThumb3
										{
											OFFSET -2.726974 -1.574417 1.574421
											CHANNELS 3 Xrotation Yrotation Zrotation
											JOINT RightHandThumb4
											{
												OFFSET -3.941010 -2.275345 2.275343
												CHANNELS 3 Xrotation Yrotation Zrotation
												End Site
												{
													OFFSET 0.005814 5.087799 0.009927
												}
											}
										}
									}
								}
								JOINT RightHandIndex1
								{
									OFFSET -24.424698 -1.985657 5.953444
									CHANNELS 3 Xrotation Yrotation Zrotation
									JOINT RightHandIndex2
									{
										OFFSET -6.426697 0.000000 0.000000
										CHANNELS 3 Xrotation Yrotation Zrotation
										JOINT RightHandIndex3
										{
											OFFSET -5.337898 0.000000 0.000000
											CHANNELS 3 Xrotation Yrotation Zrotation
											JOINT RightHandIndex4
											{
												OFFSET -4.409401 0.000000 0.000000
												CHANNELS 3 Xrotation Yrotation Zrotation
												End Site
												{
													OFFSET 0.000000 4.409363 0.014408
												}
											}
										}
									}
								}
								JOINT RightHandMiddle1
								{
									OFFSET -23.810097 0.000000 0.000000
									CHANNELS 3 Xrotation Yrotation Zrotation
									JOINT RightHandMiddle2
									{
										OFFSET -7.176498 0.000000 0.000000
										CHANNELS 3 Xrotation Yrotation Zrotation
										JOINT RightHandMiddle3
										{
											OFFSET -6.774902 0.000000 0.000000
											CHANNELS 3 Xrotation Yrotation Zrotation
											JOINT RightHandMiddle4
											{
												OFFSET -5.403328 0.000000 0.000000
												CHANNELS 3 Xrotation Yrotation Zrotation
												End Site
												{
													OFFSET 0.027702 5.403244 0.017457
												}
											}
										}
									}
								}
								JOINT RightHandRing1
								{
									OFFSET -22.908302 -0.839325 -6.020576
									CHANNELS 3 Xrotation Yrotation Zrotation
									JOINT RightHandRing2
									{
										OFFSET -6.337502 0.000000 0.000000
										CHANNELS 3 Xrotation Yrotation Zrotation
										JOINT RightHandRing3
										{
											OFFSET -5.779297 0.000000 0.000000
											CHANNELS 3 Xrotation Yrotation Zrotation
											JOINT RightHandRing4
											{
												OFFSET -4.965698 0.000000 0.000000
												CHANNELS 3 Xrotation Yrotation Zrotation
												End Site
												{
													OFFSET 0.000000 4.965668 0.016226
												}
											}
										}
									}
								}
								JOINT RightHandPinky1
								{
									OFFSET -20.037003 -1.530334 -10.950259
									CHANNELS 3 Xrotation Yrotation Zrotation
									JOINT RightHandPinky2
									{
										OFFSET -5.254700 0.000000 0.000000
										CHANNELS 3 Xrotation Yrotation Zrotation
										JOINT RightHandPinky3
										{
											OFFSET -4.810204 0.000000 0.000000
											CHANNELS 3 Xrotation Yrotation Zrotation
											JOINT RightHandPinky4
											{
												OFFSET -3.647202 0.000000 0.000000
												CHANNELS 3 Xrotation Yrotation Zrotation
												End Site
												{
													OFFSET 0.000000 3.647186 0.011917
												}
											}
										}
									}
								}
							}
						}
					}
				}
			}
		}
	}
	JOINT LeftUpLeg
	{
		OFFSET 15.427100 -6.655098 0.678600
		CHANNELS 3 Xrotation Yrotation Zrotation
		JOINT LeftLeg
		{
			OFFSET 4.081073 -39.591068 13.024000
			CHANNELS 3 Xrotation Yrotation Zrotation
			JOINT LeftFoot
			{
				OFFSET -4.081074 -37.707932 -15.979700
				CHANNELS 3 Xrotation Yrotation Zrotation
				JOINT LeftToeBase
				{
					OFFSET 5.346399 -15.068900 20.645000
					CHANNELS 3 Xrotation Yrotation Zrotation
					JOINT LeftToe_End
					{
						OFFSET 2.754700 0.931300 11.300900
						CHANNELS 3 Xrotation Yrotation Zrotation
						End Site
						{
							OFFSET 0.000000 11.669021 0.000000
						}
					}
				}
			}
		}
	}
	JOINT RightUpLeg
	{
		OFFSET -15.569500 -6.655098 0.678600
		CHANNELS 3 Xrotation Yrotation Zrotation
		JOINT RightLeg
		{
			OFFSET -4.081825 -39.591045 13.023800
			CHANNELS 3 Xrotation Yrotation Zrotation
			JOINT RightFoot
			{
				OFFSET 4.081824 -37.707954 -15.979600
				CHANNELS 3 Xrotation Yrotation Zrotation
				JOINT RightToeBase
				{
					OFFSET -5.346400 -15.068900 20.645000
					CHANNELS 3 Xrotation Yrotation Zrotation
					JOINT RightToe_End
					{
						OFFSET -2.754700 0.931300 11.300900
						CHANNELS 3 Xrotation Yrotation Zrotation
						End Site
						{
							OFFSET 0.000000 11.669021 0.000000
						}
					}
				}
			}
		}
	}
}
MOTION
Frames: 4
Frame Time: 0.033333
0.031759 31.984085 11.957686 9.621780 1.127756 -15.308776 7.119766 3.530744 2.212689 9.369042 0.871234 1.397394 9.372913 0.861501 1.378883 -16.461733 -4.624458 12.410714 -15.713859 1.814252 -4.936005 0.000000 0.000000 -0.000000 1.838036 -6.393821 28.960415 -45.631261 -62.604127 -8.861363 0.000001 -21.916788 0.000002 -8.877637 -15.883485 4.765572 0.699759 -6.020116 19.223931 19.074642 26.512440 -1.026331 3.271086 -0.981120 3.963643 -0.000000 -0.000000 -0.000001 0.064625 2.122912 0.146435 0.883072 3.094824 -31.843845 0.339538 1.967244 -19.583689 -0.000001 0.000001 -0.000003 0.075800 3.331404 -0.677647 1.488951 3.903389 -41.746188 0.476135 2.315363 -23.238213 -0.000003 0.000000 0.000003 0.291221 4.045400 -11.950738 1.094383 3.411114 -35.566711 0.533228 2.443910 -24.612969 0.000003 -0.000000 -0.000001 1.396890 8.569548 -20.890911 0.673752 2.729607 -27.725799 0.090003 1.024032 -10.045314 0.000001 0.000000 -0.000002 3.195376 11.033242 -12.120342 -64.014124 61.696716 23.780769 0.000000 11.595743 -0.000000 1.591377 1.974320 -5.985760 -13.495574 -11.552050 -5.371137 13.666572 -20.582654 -6.820340 3.162464 -4.141727 -22.215033 -0.000002 -0.000002 0.000000 0.073915 -1.562739 -2.356448 0.589401 -2.269614 29.111977 0.172151 -1.255799 15.610686 0.000000 0.000000 0.000003 -0.277437 -0.033345 7.396917 0.922617 -2.784479 36.658479 0.558003 -2.212318 28.308991 0.000000 -0.000000 -0.000002 -0.616514 -0.769438 16.898592 0.357150 -1.790261 22.562415 0.313797 -1.682159 21.131118 0.000001 0.000001 0.000001 -3.110167 0.450101 17.298736 0.612399 -2.310397 29.687591 0.130088 -1.094183 13.559654 0.000001 0.000000 -0.000002 -109.751694 -13.231463 23.087918 123.312030 -19.566011 -15.630623 -20.095333 -8.620808 30.681070 1.541184 0.009622 -1.118810 0.000000 -0.000000 0.000000 -107.831202 3.183793 -3.306759 21.198238 -8.431719 2.117530 -4.300258 -0.995980 -7.071302 -12.161254 0.000002 0.000001 -0.000000 0.000000 0.000000 
-0.451672 31.987823 12.021904 10.860947 1.667544 -16.301587 6.874383 4.221329 1.985854 9.013469 0.807152 1.111816 9.019912 0.816662 1.090171 -17.112286 -4.793449 11.279622 -15.614386 -0.733846 -4.075555 -0.000000 -0.000000 -0.000000 2.923165 -9.594174 27.752722 -41.129494 -62.218802 -6.067841 0.000001 -22.691775 0.000001 -9.337688 -15.956171 5.539642 0.699758 -6.020116 19.223931 18.672725 25.904734 -0.766540 3.278653 -0.987596 4.042108 -0.000000 0.000000 -0.000000 0.051050 1.642602 -0.848888 0.867155 3.069082 -31.547913 0.337507 1.961517 -19.524186 0.000001 -0.000001 -0.000000 0.081430 3.155109 -1.344691 1.455893 3.866093 -41.258372 0.472180 2.306138 -23.140001 0.000002 0.000001 0.000001 0.247234 3.828327 -12.485866 1.094458 3.411216 -35.567824 0.530951 2.438932 -24.559429 -0.000001 -0.000000 -0.000000 1.474923 8.569448 -21.773564 0.644938 2.674111 -27.114562 0.088398 1.014911 -9.954856 0.000000 -0.000001 -0.000003 3.230921 9.901741 -13.711320 -63.729169 59.616391 24.803031 0.000000 11.654541 -0.000000 1.077763 1.280357 -5.557228 -13.495575 -11.552049 -5.371135 13.435616 -20.063034 -6.977994 3.150941 -4.304137 -22.133156 0.000002 -0.000001 -0.000000 0.086108 -1.645995 -1.405962 0.577752 -2.248581 28.816408 0.165470 -1.231633 15.302547 -0.000000 0.000000 0.000002 -0.293531 0.104163 7.374611 0.914357 -2.773355 36.488117 0.555106 -2.206963 28.233934 0.000001 0.000000 0.000001 -0.663892 -0.646692 17.085614 0.350634 -1.774510 22.352988 0.311160 -1.675365 21.041725 -0.000000 -0.000001 -0.000002 -3.092720 0.602255 17.197704 0.598990 -2.286731 29.353114 0.129299 -1.090908 13.518053 -0.000000 -0.000001 -0.000003 -112.874784 -15.976337 26.538700 122.699622 -20.837147 -16.545211 -15.815431 -11.148313 31.162079 1.603305 0.010395 -1.163146 -0.000000 0.000000 -0.000000 -108.388129 4.494575 -4.890568 22.192437 -7.818646 2.161817 -7.056202 -3.130209 -6.554280 -11.236004 0.000003 0.000001 -0.000000 -0.000000 -0.000000 
-0.770681 32.284538 12.402441 12.804116 1.755062 -17.424064 6.441005 5.337263 1.988719 8.463223 0.736656 0.864311 8.470829 0.759266 0.839132 -17.716517 -5.019856 10.702848 -15.513115 -2.704612 -3.383928 -0.000000 0.000000 -0.000000 3.768127 -12.414345 26.940471 -36.630055 -61.278811 -3.304923 -0.000001 -23.170092 -0.000001 -9.437711 -15.810703 5.770849 0.699761 -6.020112 19.223936 18.393829 25.438029 -0.586966 3.303977 -0.986647 3.942519 -0.000000 -0.000000 -0.000003 0.035600 0.938163 -1.225130 0.861567 3.059976 -31.443432 0.334775 1.953767 -19.444036 0.000001 0.000000 -0.000002 0.079107 2.879744 -2.084234 1.424123 3.829681 -40.785027 0.467794 2.295838 -23.030623 0.000001 -0.000000 -0.000000 0.174841 3.509543 -13.087501 1.094749 3.411625 -35.572742 0.526727 2.429688 -24.460149 0.000001 -0.000000 -0.000001 1.533262 8.410094 -22.755603 0.616288 2.617451 -26.493803 0.087161 1.007917 -9.885306 0.000000 0.000000 -0.000003 3.126695 8.659968 -14.738443 -63.061962 58.157060 25.354477 0.000001 11.898222 -0.000001 1.149257 0.339820 -5.100571 -13.495573 -11.552049 -5.371137 13.366567 -19.843315 -7.042113 3.143271 -4.360056 -22.127171 0.000000 -0.000002 -0.000001 0.124927 -1.826173 -0.759206 0.567089 -2.229099 28.543535 0.159008 -1.207775 14.999365 -0.000000 -0.000000 -0.000004 -0.319359 0.290255 7.420634 0.902926 -2.757850 36.250980 0.552940 -2.202911 28.177600 -0.000001 -0.000000 0.000001 -0.766437 -0.417881 17.623476 0.340218 -1.748981 22.014159 0.307090 -1.664747 20.902129 -0.000000 0.000000 0.000001 -3.036095 0.528512 17.802166 0.577625 -2.248360 28.813153 0.127923 -1.085196 13.445957 0.000000 -0.000000 -0.000002 -114.091794 -18.525377 29.244073 122.604997 -20.906757 -16.689219 -14.873148 -14.410104 30.324571 1.471471 0.008760 -1.067920 -0.000000 0.000000 0.000000 -110.237955 5.667400 -6.020569 24.349160 -7.422687 2.472143 -8.833695 -3.784092 -5.383439 -10.466972 -0.000001 -0.000002 0.000000 -0.000001 -0.000000 
-0.894581 33.947693 12.023459 14.790969 2.096680 -18.552718 5.997260 5.916110 2.061999 7.935157 0.673544 0.733527 7.942691 0.702585 0.705375 -18.367519 -5.177579 10.163927 -15.181163 -4.200721 -2.625872 -0.000000 0.000000 0.000000 4.260202 -14.263181 26.682783 -32.868551 -60.429860 -0.800985 -0.000001 -22.926081 0.000001 -9.389212 -15.399966 5.419458 0.699759 -6.020115 19.223933 18.384388 25.369954 -0.581335 3.316373 -0.981636 3.824126 0.000000 0.000000 0.000002 0.069475 -0.222599 -0.176115 0.859111 3.055968 -31.397259 0.331998 1.945923 -19.362722 -0.000001 0.000003 -0.000000 0.063264 2.486386 -2.764174 1.395759 3.796599 -40.358382 0.464716 2.288565 -22.953252 -0.000000 0.000001 0.000004 0.049967 3.011914 -13.803864 1.095425 3.412562 -35.584002 0.522312 2.419955 -24.355647 0.000001 -0.000001 -0.000003 1.550271 7.991985 -23.846832 0.590448 2.565009 -25.922340 0.086933 1.006589 -9.872269 0.000001 0.000001 -0.000003 3.043373 7.662062 -15.455427 -62.677224 56.899611 26.116755 0.000002 11.851375 -0.000000 0.637052 -0.511460 -4.965228 -13.495574 -11.552050 -5.371135 13.421504 -19.856803 -7.034495 3.141015 -4.362518 -22.138282 0.000000 0.000000 0.000002 0.149622 -1.997446 -0.083067 0.558037 -2.212393 28.310014 0.150165 -1.174335 14.574123 -0.000001 0.000000 0.000002 -0.364527 0.492393 7.751758 0.890718 -2.741139 35.996849 0.551668 -2.200551 28.144481 -0.000001 -0.000001 -0.000000 -0.924079 -0.101796 18.471623 0.329846 -1.723115 21.671704 0.303454 -1.655202 20.776713 -0.000000 0.000000 -0.000000 -2.991776 0.421294 18.706850 0.556788 -2.210090 28.277436 0.126742 -1.080229 13.383529 -0.000000 -0.000000 -0.000002 -105.815114 -47.059805 29.443484 113.371018 -31.505200 -30.717280 -17.608226 -8.283251 14.123249 1.180467 0.005671 -0.858739 -0.000000 0.000001 -0.000000 -110.446816 6.809421 -7.564180 24.880987 -7.109940 2.809706 -9.630289 -4.045370 -4.105485 -9.736370 -0.000003 0.000003 0.000000 -0.000000 -0.000000 
